<svg xmlns="http://www.w3.org/2000/svg" width="35.279" height="35.274" viewBox="0 0 35.279 35.274"><defs><style>.a{fill:#fff;}</style></defs><g transform="translate(4995.985 -6101.033)"><path class="a" d="M-4978.338,6101.035h12.594a4.733,4.733,0,0,1,5.037,5.037q0,12.617,0,25.233a4.733,4.733,0,0,1-4.977,4.991c-2.234,0-4.469-.011-6.7.01-.443,0-.583-.117-.58-.572q.026-5.727,0-11.455c0-.474.168-.566.594-.557,1.189.024,2.378.011,3.567.007.69,0,.959-.27,1.036-.961.124-1.124.256-2.247.408-3.368.135-1-.171-1.367-1.183-1.368-1.3,0-2.6-.013-3.892.008-.389.006-.543-.09-.533-.509.028-1.08-.007-2.162.015-3.242a1.96,1.96,0,0,1,2.126-2.126c.756-.021,1.513,0,2.27-.012.739-.009,1.063-.315,1.074-1.048.014-1.026.007-2.053,0-3.079,0-.513-.235-.943-.761-.948a20.975,20.975,0,0,0-5.589.254,5.922,5.922,0,0,0-4.583,5.207c-.166,1.622-.12,3.269-.123,4.9,0,.482-.135.623-.61.6-.827-.037-1.657-.016-2.486-.008a.9.9,0,0,0-1.006,1q-.01,1.864.024,3.728c.014.7.31.964,1.008.967.81,0,1.623.028,2.432-.009.486-.022.645.11.641.622-.024,3.53-.015,7.06-.016,10.59,0,.306-.015.613,0,.919s-.075.451-.42.451c-4.18-.01-8.361.03-12.541-.024a4.664,4.664,0,0,1-4.471-4.609q-.013-12.995,0-25.99a4.714,4.714,0,0,1,4.667-4.642Q-4984.824,6101.025-4978.338,6101.035Z"/></g></svg>