<svg xmlns="http://www.w3.org/2000/svg" width="303.018" height="251.203" viewBox="0 0 303.018 251.203"><defs><style>.a{fill:#a7b839;}.b{fill:none;stroke:#f3f4e4;stroke-width:3.186px;}.b,.c,.d{stroke-miterlimit:10;}.c{fill:#f3f4e4;}.c,.d{stroke:#366;stroke-linecap:round;stroke-width:4.593px;}.d{fill:#fefff3;}.e{fill:#366;}</style></defs><g transform="translate(-491.092 -5011.006)"><rect class="a" width="70.275" height="181.828" rx="35.137" transform="translate(491.092 5075.361)"/><line class="b" x2="70.275" transform="translate(491.092 5166.275)"/><ellipse class="c" cx="29.6" cy="45.457" rx="29.6" ry="45.457" transform="translate(586.739 5075.361)"/><g transform="translate(-1.5)"><path class="a" d="M628.9,5108.342l.1,0a2.247,2.247,0,0,0,2.246-2.138,2.214,2.214,0,0,0-.589-1.608,2.252,2.252,0,0,0-3.905,1.413,2.213,2.213,0,0,0,.589,1.608A2.24,2.24,0,0,0,628.9,5108.342Z"/><path class="a" d="M637.029,5107.412l-.205.078a16.342,16.342,0,0,0-7.514,6.291,14.925,14.925,0,0,0-10.289-5.472l-.239-.02v3.013l.2.021a11.8,11.8,0,0,1,8.587,5.165c-.144.242-.287.485-.427.729-.352.611-.7,1.24-1.04,1.848-.28.5-.539.969-.8,1.425A8.648,8.648,0,0,0,609,5124.447v.221h3.022v-.221a5.621,5.621,0,0,1,11.2-.615,14.94,14.94,0,0,1-3.893,3.973,10.454,10.454,0,0,1-11.161.259l-.019-.012a4.678,4.678,0,0,1-2.111-3.258,11.592,11.592,0,0,1-.138-1.786,11.782,11.782,0,0,1,11.194-11.734l.209-.011v-3l-.23.01a14.823,14.823,0,0,0-10.054,4.529,14.629,14.629,0,0,0-4.141,10.21,14.854,14.854,0,0,0,29.707,0,18.613,18.613,0,0,0-.668-4.33l-.137-.5-2.264,3.788.007.073a8.111,8.111,0,0,1,.041.968,11.84,11.84,0,0,1-19.212,9.175,13.676,13.676,0,0,0,10.658-1.881c3.645-2.427,5.724-6.167,7.735-9.783l.008-.015c.33-.593.671-1.206,1.009-1.794,2.355-4.088,4.64-7.083,8.142-8.414l.207-.079Z"/></g><circle class="c" cx="35.15" cy="35.15" r="35.15" transform="translate(581.188 5186.889)"/><g transform="translate(-1.5)"><path class="a" d="M626.249,5209.563c.033,0,.066,0,.1,0a2.245,2.245,0,0,0,2.245-2.137,2.212,2.212,0,0,0-.589-1.609,2.253,2.253,0,0,0-3.905,1.413,2.212,2.212,0,0,0,.589,1.608A2.241,2.241,0,0,0,626.249,5209.563Z"/><path class="a" d="M634.373,5208.633l-.2.078a16.341,16.341,0,0,0-7.513,6.291,14.923,14.923,0,0,0-10.289-5.471l-.24-.021v3.013l.2.021a11.8,11.8,0,0,1,8.586,5.165q-.216.363-.426.729c-.352.611-.7,1.24-1.04,1.848-.28.5-.539.969-.8,1.425a8.648,8.648,0,0,0-16.3,3.957v.221h3.021v-.221a5.621,5.621,0,0,1,11.2-.615,14.9,14.9,0,0,1-3.893,3.973,10.453,10.453,0,0,1-11.161.259l-.018-.012a4.679,4.679,0,0,1-2.112-3.258,11.738,11.738,0,0,1,11.057-13.52l.209-.011v-3l-.23.01a14.826,14.826,0,0,0-10.054,4.529,14.625,14.625,0,0,0-4.141,10.21,14.854,14.854,0,0,0,29.707,0,18.56,18.56,0,0,0-.669-4.33l-.136-.5-2.264,3.787.007.073a8.122,8.122,0,0,1,.04.968A11.838,11.838,0,0,1,607.7,5233.4a13.671,13.671,0,0,0,10.658-1.881c3.644-2.427,5.723-6.167,7.734-9.783l.008-.015c.33-.593.671-1.206,1.01-1.794,2.354-4.088,4.64-7.083,8.141-8.414l.207-.078Z"/></g><path class="d" d="M682.886,5013.837c14.013,8.959,22.495,19.279,29.767,29.891a115.636,115.636,0,0,1,14.888,33.575,102.865,102.865,0,0,1,3.3,36.438c-1.387,12.759-4.295,25.889-13.227,40.53a3.412,3.412,0,0,1-4.648,1.139c-14.72-8.774-23.423-19.041-30.6-29.688a102.818,102.818,0,0,1-14.057-33.77,115.783,115.783,0,0,1-2.474-36.649c1.484-12.786,4.179-25.862,12.405-40.318a3.3,3.3,0,0,1,4.5-1.236C682.788,5013.775,682.842,5013.81,682.886,5013.837Z" transform="translate(-1.5)"/><path class="a" d="M711.823,5146l-11.1-51.805c.373-4.748,2.138-9.531,3.774-13.971a101.3,101.3,0,0,1,6.035-13.307c1.582-2.942-2.89-5.557-4.481-2.625a112.706,112.706,0,0,0-6.555,14.544c-.439,1.2-.873,2.408-1.286,3.629l-6.834-31.9a2.593,2.593,0,0,0-5.071,1.086l1.787,8.34a38.307,38.307,0,0,0-6.459-5.967,2.609,2.609,0,0,0-3.544.928,2.656,2.656,0,0,0,.928,3.552c.2.139.4.3.6.444.029.023.061.048.089.068.326.265.654.54.98.814.61.521,1.2,1.068,1.776,1.634s1.132,1.157,1.662,1.758c.255.283.494.574.742.875l.4.486c.022.028.048.061.07.091a35.78,35.78,0,0,1,2.634,4.035c.4.7.768,1.414,1.1,2.147.148.3.282.608.421.918.01.032.111.28.136.328.079.195.151.4.229.592a2.919,2.919,0,0,0,1.291,1.566l9.129,42.606a104.64,104.64,0,0,0-20.828-21.37,2.611,2.611,0,0,0-3.543.928,2.658,2.658,0,0,0,.936,3.543,97.631,97.631,0,0,1,26.083,30.713,2.666,2.666,0,0,0,.436.583l3.389,15.821a2.6,2.6,0,0,0,2.533,2.05,2.558,2.558,0,0,0,.546-.058A2.6,2.6,0,0,0,711.823,5146Z" transform="translate(-1.5)"/><path class="a" d="M712.874,5169.436c.336,8.65-3.446,17.839-6.9,25.959a240.323,240.323,0,0,0-10.674,30.033c-3.1,11.2-2.041,22.151,6.777,30.977a18.686,18.686,0,0,0,26.825.256c7.378-7.068,9.392-15.983,8.067-25.791a107.258,107.258,0,0,0-12.087-35.855c-4.833-9.1-13.28-22.469-3.517-25.641-1.767.583-2.412,2.518-5.213,1.873a6.838,6.838,0,0,1-3.278-1.811" transform="translate(-1.5)"/><path class="e" d="M720.127,5252.461c5.5-3.694,6.98-10.471,6.944-16.717a52.193,52.193,0,0,0-3.393-18.069,2.664,2.664,0,0,0-3.18-1.812,2.627,2.627,0,0,0-1.82,3.2,48.779,48.779,0,0,1,3.189,15.5c.159,4.532-.238,10.656-4.356,13.421-2.757,1.846-.159,6.344,2.616,4.48" transform="translate(-1.5)"/><path class="d" d="M791.23,5046.686c3.57,16.24,2.271,29.538-.088,42.182a115.968,115.968,0,0,1-13.209,34.273,102.92,102.92,0,0,1-23.433,28.1c-10,8.041-21.347,15.286-38.011,19.306a3.414,3.414,0,0,1-4.1-2.474c-4.2-16.619-3.093-30.023-.637-42.623a102.823,102.823,0,0,1,13.943-33.832,115.632,115.632,0,0,1,24.157-27.655c10.09-7.988,21.25-15.339,37.277-19.739a3.3,3.3,0,0,1,4.056,2.3A1.312,1.312,0,0,1,791.23,5046.686Z" transform="translate(-1.5)"/><path class="a" d="M778.6,5093.872a43.573,43.573,0,0,0-11.734,3.263l10.565-16.325a2.594,2.594,0,0,0-4.356-2.817l-16.563,25.595c-.067.057-.137.106-.205.163a2.068,2.068,0,0,0-.632,1.132l-12.03,18.588a115.526,115.526,0,0,0,.689-34c-.416-3.26-5.611-3.305-5.178,0a112.39,112.39,0,0,1-3.6,46.193,2.841,2.841,0,0,0-.08.426l-22.338,34.519a2.593,2.593,0,1,0,4.355,2.817l12.042-18.609a2.79,2.79,0,0,0,.655-.415c4.109-3.535,9.366-5.964,14.253-8.235a118.431,118.431,0,0,1,15.639-5.876c3.189-.954,1.829-5.955-1.38-4.992a123.866,123.866,0,0,0-16.875,6.406c-1.861.86-3.728,1.776-5.576,2.734l24.209-37.409a36.384,36.384,0,0,1,18.136-7.97,2.683,2.683,0,0,0,2.589-2.589C781.194,5095.206,780,5093.686,778.6,5093.872Z" transform="translate(-1.5)"/></g></svg>