<svg xmlns="http://www.w3.org/2000/svg" width="300.971" height="355.142" viewBox="0 0 300.971 355.142"><defs><style>.a{fill:#a7b839;}.b{fill:#fefff3;stroke:#366;stroke-linecap:round;stroke-miterlimit:10;stroke-width:5.767px;}</style></defs><g transform="translate(-1120.904 -4349.74)"><path class="a" d="M1344.289,4699.471h52.287v-7.823h-1.316q-15.12-.015-30.252-.028c-2.349,0-3.72-2.047-2.66-3.939a2.768,2.768,0,0,1,2.642-1.38q8.7.027,17.429.027,5.046.015,10.09.01c1.042,0,2.093-.056,3.126.009.859.064,1.234-.284,1.545-1.06q5.085-12.888,10.236-25.774c2.761-6.956,5.457-13.939,8.327-20.848a35.364,35.364,0,0,0,2.348-13.527,137.444,137.444,0,0,0-1.562-19.925c-1.774-12.759-4.406-25.372-7.422-37.893-1.883-7.814-3.994-15.583-6.014-23.379a4.34,4.34,0,0,0-3.976-2.76,5.7,5.7,0,0,0-6.269,6.05q-.015,25.061-.01,50.122v20.8a10.913,10.913,0,0,1-.036,1.344,2.583,2.583,0,0,1-2.751,2.275,2.511,2.511,0,0,1-2.44-2.467c-.056-1.792-.028-3.592-.028-5.384q0-30.2.009-60.394c0-2.313-.037-4.626.009-6.938a10.925,10.925,0,0,1,19.267-6.872,5.244,5.244,0,0,1,1.042,1.937c4.213,14.834,7.988,29.8,10.757,44.967q2.318,12.71,3.921,25.528a80.155,80.155,0,0,1,.165,21.075c-.494,3.657-1.965,6.974-3.309,10.347q-8.677,21.811-17.338,43.614a4.314,4.314,0,0,0-.22,1.536c-.017,4.351-.008,8.692-.017,13.042,0,2.1-.988,3.117-3.09,3.117q-28.323-.015-56.675-.055c-2.166,0-3.19-1.005-3.19-3.153-.009-10.758-.027-21.506.028-32.263a4.655,4.655,0,0,1,.813-2.486q11.64-16.411,23.361-32.766a13.986,13.986,0,0,1,25.427,8.9,14.39,14.39,0,0,1-2.349,6.946c-3.29,5.182-6.553,10.392-9.853,15.574a4.19,4.19,0,0,1-.987,1.2,2.568,2.568,0,0,1-3.473-.054,2.709,2.709,0,0,1-.237-3.6c2.531-4.021,5.09-8.024,7.6-12.073a42.552,42.552,0,0,0,3.465-6.014,8.383,8.383,0,0,0-4.049-10.52,8.636,8.636,0,0,0-11.059,2.514c-4.012,5.547-7.979,11.15-11.955,16.726-3.638,5.1-7.275,10.181-10.9,15.29a2.687,2.687,0,0,0-.5,1.417q-.042,14.161-.019,28.342c0,.174.028.366.056.667" transform="translate(-1.5)"/><path class="a" d="M1201.49,4699.471H1149.2v-7.823h1.316q15.122-.015,30.252-.028c2.349,0,3.72-2.047,2.66-3.939a2.767,2.767,0,0,0-2.641-1.38q-8.706.027-17.43.027-5.045.015-10.09.01c-1.042,0-2.093-.056-3.126.009-.859.064-1.234-.284-1.545-1.06q-5.085-12.888-10.236-25.774c-2.76-6.956-5.456-13.939-8.326-20.848a35.346,35.346,0,0,1-2.349-13.527,137.308,137.308,0,0,1,1.563-19.925c1.773-12.759,4.405-25.372,7.421-37.893,1.883-7.814,3.994-15.583,6.014-23.379a4.341,4.341,0,0,1,3.976-2.76,5.7,5.7,0,0,1,6.27,6.05q.013,25.061.009,50.122v20.8a11.134,11.134,0,0,0,.036,1.344,2.589,2.589,0,0,0,2.752,2.275,2.512,2.512,0,0,0,2.44-2.467c.055-1.792.027-3.592.027-5.384q0-30.2-.009-60.394c0-2.313.037-4.626-.009-6.938a10.925,10.925,0,0,0-19.267-6.872,5.256,5.256,0,0,0-1.042,1.937c-4.213,14.834-7.988,29.8-10.757,44.967q-2.316,12.71-3.921,25.528a80.155,80.155,0,0,0-.164,21.075c.493,3.657,1.974,6.974,3.308,10.347q8.679,21.811,17.338,43.614a4.314,4.314,0,0,1,.22,1.536c.018,4.351.009,8.692.018,13.042,0,2.1.987,3.117,3.089,3.117q28.323-.015,56.675-.055c2.166,0,3.19-1.005,3.19-3.153.009-10.758.027-21.506-.027-32.263a4.657,4.657,0,0,0-.814-2.486q-11.638-16.411-23.361-32.766a13.986,13.986,0,0,0-25.427,8.9,14.412,14.412,0,0,0,2.349,6.946c3.291,5.182,6.553,10.392,9.853,15.574a4.208,4.208,0,0,0,.987,1.2,2.568,2.568,0,0,0,3.473-.054,2.7,2.7,0,0,0,.238-3.6c-2.532-4.021-5.091-8.024-7.6-12.073a42.45,42.45,0,0,1-3.464-6.014,8.381,8.381,0,0,1,4.048-10.52,8.637,8.637,0,0,1,11.06,2.514c4.012,5.547,7.978,11.15,11.954,16.726,3.638,5.1,7.284,10.181,10.9,15.29a2.688,2.688,0,0,1,.5,1.417q.042,14.161.019,28.342c0,.174-.027.366-.055.667" transform="translate(-1.5)"/><path class="a" d="M1246.448,4488.7v33.031h25.8a2.884,2.884,0,1,1,0,5.767h-25.8v25.339h25.8a2.884,2.884,0,1,1,0,5.767h-25.8v25.341h25.8a2.883,2.883,0,1,1,0,5.767h-25.8v25.338h25.8a2.884,2.884,0,1,1,0,5.768h-25.8v25.34h25.8a2.884,2.884,0,1,1,0,5.768h-25.8v4.9a28.667,28.667,0,0,0,57.335,0V4488.7Z" transform="translate(-1.5)"/><path class="b" d="M1265.213,4469.636c-3.418-15.282-2.23-27.812-.037-39.74a108.838,108.838,0,0,1,12.339-32.327,97.047,97.047,0,0,1,21.981-26.541c9.405-7.6,20.071-14.451,35.754-18.3a3.2,3.2,0,0,1,3.867,2.321c4.012,15.638,3.007,28.278.74,40.151a97.121,97.121,0,0,1-13.033,31.916,109.063,109.063,0,0,1-22.685,26.121c-9.478,7.558-19.97,14.523-35.06,18.718a3.112,3.112,0,0,1-3.83-2.157Z" transform="translate(-1.5)"/><path class="a" d="M1325.081,4400.98a2.752,2.752,0,0,0-3.3-1.873,37.991,37.991,0,0,0-9.68,2.738l11.586-18.029a2.684,2.684,0,0,0-4.517-2.9l-17.574,27.351c-.078.066-.165.115-.243.182-.156.136-.114.373-.221.542L1289.95,4426.4a109.116,109.116,0,0,0,.487-31.189,2.777,2.777,0,0,0-2.678-2.678c-1.308-.009-2.87,1.252-2.678,2.678a106,106,0,0,1-3.235,43.469,2.205,2.205,0,0,0-.031.382l-18.82,29.287a2.684,2.684,0,0,0,4.517,2.9l9.235-14.372a2.736,2.736,0,0,0,.491-.281c3.838-3.327,8.774-5.621,13.344-7.761a110.579,110.579,0,0,1,14.66-5.565c3.291-1,1.892-6.169-1.426-5.163a119.392,119.392,0,0,0-15.939,6.1c-1.486.695-2.954,1.489-4.436,2.245l22.231-34.6a34.884,34.884,0,0,1,17.537-7.584C1324.644,4404.079,1325.42,4402.241,1325.081,4400.98Z" transform="translate(-1.5)"/><path class="b" d="M1272.1,4477.875c-13.737-4.068-23.234-10.584-31.8-17.64A99.44,99.44,0,0,1,1219.951,4436a88.7,88.7,0,0,1-11.442-29.375c-1.911-10.894-2.641-22.474,1.261-36.714a2.928,2.928,0,0,1,3.574-2.065c14.285,3.738,23.936,10.163,32.427,17.265a88.784,88.784,0,0,1,19.724,24.6,99.705,99.705,0,0,1,10.8,29.75c1.828,10.939,2.723,22.419-.621,36.348a2.845,2.845,0,0,1-3.428,2.1C1272.2,4477.9,1272.148,4477.884,1272.1,4477.875Z" transform="translate(-1.5)"/><path class="a" d="M1274.616,4476.641l-7.361-13.729a2.807,2.807,0,0,0,0-.5c-.951-4.533-.594-9.44-.275-14.037a99.555,99.555,0,0,1,2.037-14.1c.732-3.354-4.44-4.789-5.172-1.415a109.868,109.868,0,0,0-2.231,15.519c-.085,1.235-.087,2.5-.143,3.749l-17.358-32.371a31.57,31.57,0,0,1,1.716-17.177,2.705,2.705,0,0,0-1.874-3.3,2.751,2.751,0,0,0-3.3,1.873,35.175,35.175,0,0,0-2.031,8.369l-8.939-16.671a2.683,2.683,0,0,0-4.73,2.535l14.026,26.161c.018.089.018.181.038.271a2.2,2.2,0,0,0,.739,1.175l8.1,15.1a102.259,102.259,0,0,0-24.532-13.928,2.719,2.719,0,0,0-3.3,1.874,2.761,2.761,0,0,0,1.872,3.308,94.837,94.837,0,0,1,32.656,21.606,2.369,2.369,0,0,0,.308.207l15.022,28.015a2.683,2.683,0,1,0,4.73-2.535Z" transform="translate(-1.5)"/><rect class="b" width="110.373" height="22.883" rx="11.442" transform="translate(1218.429 4465.82)"/></g></svg>