<svg xmlns="http://www.w3.org/2000/svg" width="35.623" height="35.683" viewBox="0 0 35.623 35.683"><defs><style>.a{fill:#fff;}</style></defs><g transform="translate(5060.648 -6101.033)"><path class="a" d="M-5043.18,6101.122c1.866,0,3.733-.024,5.6.008a23.789,23.789,0,0,1,4.769.4,9.263,9.263,0,0,1,6.054,4.115,10.272,10.272,0,0,1,1.5,4.426,56.564,56.564,0,0,1,.23,6.439c.006,2.631.009,5.263-.032,7.893a21.019,21.019,0,0,1-.432,4.686,9.16,9.16,0,0,1-6.9,7.119,13.968,13.968,0,0,1-3.595.457c-4.152.033-8.305.058-12.458.042a19.035,19.035,0,0,1-4.659-.445,9.168,9.168,0,0,1-7.089-7.083,14.539,14.539,0,0,1-.407-3.472c-.034-3.972-.059-7.945-.051-11.917a23.642,23.642,0,0,1,.352-4.646,9.216,9.216,0,0,1,4.878-6.715,9.968,9.968,0,0,1,4.194-1.144c2.679-.124,5.361-.175,8.041-.256Zm-.058,3.208v-.041c-2,.028-3.99.044-5.984.087a15.032,15.032,0,0,0-3.07.315,6.01,6.01,0,0,0-4.134,3.013,8.155,8.155,0,0,0-.917,3.693c-.07,1.812-.115,3.626-.113,5.439,0,3.387-.1,6.776.157,10.158a7.768,7.768,0,0,0,.812,3.04,5.987,5.987,0,0,0,4.755,3.221,30.043,30.043,0,0,0,3.7.253c2.683.041,5.366.029,8.049.028a48.4,48.4,0,0,0,5.664-.215,7.049,7.049,0,0,0,3.006-1,6.078,6.078,0,0,0,2.8-4.538,28.259,28.259,0,0,0,.239-3.362c.04-2.812.034-5.624.035-8.436a48.489,48.489,0,0,0-.21-5.56,7.371,7.371,0,0,0-.823-2.718,6,6,0,0,0-4.184-3.026,21.29,21.29,0,0,0-4.283-.343C-5039.574,6104.3-5041.407,6104.33-5043.238,6104.33Z"/><path class="a" d="M-5033.7,6118.933a9.169,9.169,0,0,1-9.023,9.147,9.17,9.17,0,0,1-9.277-9.151,9.165,9.165,0,0,1,9.111-9.157A9.162,9.162,0,0,1-5033.7,6118.933Zm-3.213.015a5.937,5.937,0,0,0-5.773-5.963,5.964,5.964,0,0,0-6.106,5.813,5.97,5.97,0,0,0,5.8,6.071A5.945,5.945,0,0,0-5036.915,6118.948Z"/><path class="a" d="M-5033.339,6111.546a2.14,2.14,0,0,1-2.131-2.129,2.153,2.153,0,0,1,2.117-2.152,2.159,2.159,0,0,1,2.159,2.11A2.144,2.144,0,0,1-5033.339,6111.546Z"/></g></svg>