<svg xmlns="http://www.w3.org/2000/svg" viewBox="0 0 292.73 77.34"><defs><style>.cls-1{fill:#366;}</style></defs><title>Asset 1server2</title><g id="Layer_2" data-name="Layer 2"><g id="Layer_1-2" data-name="Layer 1"><path class="cls-1" d="M55.25,9.49h.21A4.78,4.78,0,0,0,60.23,5,4.71,4.71,0,0,0,59,1.54a4.78,4.78,0,0,0-8.29,3A4.67,4.67,0,0,0,51.94,8,4.76,4.76,0,0,0,55.25,9.49Z"/><path class="cls-1" d="M72.49,7.51l-.43.17C66,10,60.94,14.22,56.11,21A31.67,31.67,0,0,0,34.27,9.42l-.51,0v6.4l.42,0a25.08,25.08,0,0,1,18.23,11l-.91,1.55c-.74,1.3-1.49,2.63-2.2,3.92-.6,1.07-1.15,2.06-1.7,3A18.36,18.36,0,0,0,13,43.68v.47H19.4v-.48a11.93,11.93,0,0,1,23.78-1.3,31.69,31.69,0,0,1-8.26,8.43,22.19,22.19,0,0,1-23.69.55l0,0a9.89,9.89,0,0,1-4.48-6.91,24.11,24.11,0,0,1-.3-3.79,25,25,0,0,1,23.77-24.9l.44,0V9.31l-.49,0A31.51,31.51,0,0,0,8.79,19,31,31,0,0,0,0,40.62a31.53,31.53,0,0,0,63.06,0,39.63,39.63,0,0,0-1.42-9.19l-.29-1.06-4.81,8,0,.15a20.27,20.27,0,0,1,.08,2.06A25.13,25.13,0,0,1,15.86,60.09a29.06,29.06,0,0,0,22.63-4C46.22,51,50.64,43,54.9,35.33l0,0c.7-1.26,1.42-2.56,2.14-3.81,5-8.67,9.85-15,17.28-17.85l.44-.17Z"/><path class="cls-1" d="M187.08,55.16a23,23,0,0,1-3.82,2.42c-5.29,2.09-10.43,2.07-15.06-1.71a10.63,10.63,0,0,1-3.71-6.08,35.64,35.64,0,0,1-.78-6.82c-.11-4.8,0-9.61,0-14.41,0-1.32.07-1.39,1.42-1.39,1.66,0,3.32,0,5,0,1.18,0,1.23,0,1.23,1.26,0,5,0,10,0,15a9.74,9.74,0,0,0,.95,4.54c1.36,2.62,4.53,3.76,7.54,3.44A11.61,11.61,0,0,0,186,48.76a2.91,2.91,0,0,0,1.18-2.5c0-5.93,0-11.85,0-17.78,0-1.25,0-1.31,1.29-1.31q2.58,0,5.16,0c1.18,0,1.2,0,1.2,1.19V52.94c0,2.92,0,5.83,0,8.75a15.17,15.17,0,0,1-4,10.66,15.42,15.42,0,0,1-8.44,4.56,18.46,18.46,0,0,1-8.3-.1c-5.54-1.37-9.6-4.5-11.48-10a26.42,26.42,0,0,1-.79-3.61c-.11-.58.16-1,.82-1q2.88-.21,5.76-.47c.69-.06,1,.16,1.11.89a8.37,8.37,0,0,0,8,7.1,10.47,10.47,0,0,0,5.38-.84A7.1,7.1,0,0,0,187.06,63c.26-2.54.08-5.12.09-7.68A.4.4,0,0,0,187.08,55.16Z"/><path class="cls-1" d="M227.65,56.91c-1,.7-1.79,1.3-2.63,1.84a12.8,12.8,0,0,1-7.28,2,15.84,15.84,0,0,1-13.81-7.49,17.54,17.54,0,0,1-2.68-10.79A16.38,16.38,0,0,1,206.42,31a16,16,0,0,1,12.63-4.34,12.88,12.88,0,0,1,8,3.29,2.11,2.11,0,0,0,.29.2,1.52,1.52,0,0,0,.34,0c0-.66,0-1.32,0-2s.21-1,1-1c1.87,0,3.74,0,5.61,0,.81,0,1.08.32,1.08,1.11q0,15.37,0,30.77c0,.78-.31,1-1.06,1q-2.85,0-5.7,0c-.64,0-.93-.22-.9-.87S227.65,57.78,227.65,56.91Zm0-13.36c0-1.35-.05-2.71,0-4.06a2.79,2.79,0,0,0-.8-2.07,10.78,10.78,0,0,0-5.9-3.19c-4.7-1-10.34,1.64-11.58,6.67-.93,3.75-.25,7.12,2.66,9.77A10.6,10.6,0,0,0,227,49.51l0,0a3.08,3.08,0,0,0,.59-1.68c.08-1.4,0-2.82,0-4.24Z"/><path class="cls-1" d="M146.58,30.29c0-.88,0-1.56,0-2.23s.22-.91.88-.9q2.85,0,5.7,0c.74,0,1.07.25,1.07,1q0,15.42,0,30.85c0,.72-.26,1-1,1q-2.9,0-5.79,0c-.66,0-.9-.27-.87-.9s0-1.4,0-2.27c-.93.68-1.67,1.3-2.49,1.8a14.19,14.19,0,0,1-9,1.92,15.65,15.65,0,0,1-11.89-6.84,17.31,17.31,0,0,1-3.07-11,16.44,16.44,0,0,1,5.62-12.17A16.11,16.11,0,0,1,138,26.63a12.87,12.87,0,0,1,7.82,3.2C146.09,30,146.33,30.15,146.58,30.29Zm0,13.27a29.68,29.68,0,0,1,0-3.53,3.73,3.73,0,0,0-1.69-3.48,10.85,10.85,0,0,0-9.15-2.3,9.53,9.53,0,0,0-5.92,15.19c3.73,5,11.31,5,15.62.67a3.44,3.44,0,0,0,1.13-2.84c-.1-1.23,0-2.47,0-3.71Z"/><path class="cls-1" d="M277,60c-.57,0-.88.1-1.19.1-2.32,0-4.63,0-6.95,0a1.55,1.55,0,0,1-1.46-.78q-4.53-6.76-9.09-13.51c-.61-.91-.68-.92-1.44-.19-1.3,1.25-2.57,2.52-3.9,3.74a2.08,2.08,0,0,0-.73,1.7c0,2.63,0,5.25,0,7.88,0,1.07-.08,1.15-1.17,1.15-1.76,0-3.51,0-5.26,0-1.2,0-1.21,0-1.21-1.17V13.42c0-1.32,0-1.33,1.32-1.33H251c1.19,0,1.24.06,1.24,1.27V39.19c0,.4,0,.8.08,1.45.43-.37.69-.57.93-.8q6.15-6,12.28-11.93a2.48,2.48,0,0,1,1.89-.76c2.31,0,4.63,0,7,0a12.32,12.32,0,0,1,1.31.14c-.38.44-.6.74-.86,1-3.58,3.45-7.15,6.9-10.76,10.31a1.2,1.2,0,0,0-.37,1.66,1.06,1.06,0,0,0,.17.2q6.2,9.06,12.33,18.16C276.41,59,276.62,59.37,277,60Z"/><path class="cls-1" d="M90.92,30.27c1.35-.86,2.43-1.69,3.63-2.3a14.58,14.58,0,0,1,8.12-1.4,12,12,0,0,1,7.44,3.18,11.73,11.73,0,0,1,3.6,6.26,31.42,31.42,0,0,1,.57,6c.07,5.63,0,11.26,0,16.89,0,1.16,0,1.19-1.2,1.19h-5.17c-1.23,0-1.29-.06-1.29-1.32V42a9.11,9.11,0,0,0-.74-4.31,6.72,6.72,0,0,0-6-3.66,10.55,10.55,0,0,0-8.19,3,2.51,2.51,0,0,0-.82,2c0,6.57,0,13.15,0,19.72,0,1.31,0,1.36-1.33,1.36-1.75,0-3.5,0-5.26,0-.74,0-1.06-.21-1.06-1q0-15.42,0-30.86c0-.74.24-1.06,1-1.05q2.76.06,5.52,0c.8,0,1.15.32,1.1,1.11C90.89,28.9,90.92,29.53,90.92,30.27Z"/><path class="cls-1" d="M283.2,43.59V28.48c0-1.25.06-1.31,1.29-1.31,1.75,0,3.5,0,5.25,0,.76,0,1.11.28,1.1,1,0,.29,0,.58,0,.88V58.59c0,1.46,0,1.46-1.5,1.46h-5c-1.09,0-1.16-.07-1.16-1.16Z"/><path class="cls-1" d="M292.73,17.06a5.82,5.82,0,1,1-6-5.62H287a5.7,5.7,0,0,1,5.78,5.62Z"/></g></g></svg>