<svg xmlns="http://www.w3.org/2000/svg" width="35.22" height="35.165" viewBox="0 0 35.22 35.165"><defs><style>.a{fill:#fff;}</style></defs><g transform="translate(4930.456 -6101.142)"><path class="a" d="M-4912.855,6136.27q-6.919,0-13.839,0a3.483,3.483,0,0,1-3.751-3.752q-.023-13.783,0-27.567a3.5,3.5,0,0,1,3.814-3.8q13.783-.006,27.567,0a3.5,3.5,0,0,1,3.808,3.809c.012,9.152-.017,18.3.021,27.456a3.756,3.756,0,0,1-3.892,3.9C-4903.7,6136.188-4908.279,6136.27-4912.855,6136.27Zm11.467-26.239-.225-.192a13.377,13.377,0,0,1-1.965.691,1.7,1.7,0,0,1-1.24-.254,4.967,4.967,0,0,0-7.684,2.445,12.15,12.15,0,0,0-.19,2.224c-3.837-.254-6.869-2.084-9.521-4.915a5.885,5.885,0,0,0,1.2,6.429l-1.67-.471a4.846,4.846,0,0,0,3.309,4.575l-1.528.147a4.919,4.919,0,0,0,4.239,3.34,10.344,10.344,0,0,1-6.538,1.98,12.675,12.675,0,0,0,10.4,1.567c5.852-1.541,9.537-6.308,9.994-12.731a3.428,3.428,0,0,1,.707-1.494,21.213,21.213,0,0,1,1.4-1.668l-2.258.533Z"/></g></svg>